<?xml version="1.0" encoding="UTF-8" standalone="no"?>
<!-- Created with Inkscape (http://www.inkscape.org/) -->
<!-- Ladder by Gregor Cresnar from <a href="https://thenounproject.com/browse/icons/term/ladder/" target="_blank" title="Ladder Icons">Noun Project</a> (CC BY 3.0) -->

<svg
   width="16.937323mm"
   height="16.938187mm"
   viewBox="0 0 16.937323 16.938187"
   version="1.1"
   id="svg1"
   xml:space="preserve"
   xmlns="http://www.w3.org/2000/svg"
   xmlns:svg="http://www.w3.org/2000/svg"><defs
     id="defs1" /><g
     id="layer1"
     transform="translate(-98.866831,-134.86071)"><path
       d="M 21,81.88 A 4,4 0 0 0 25.88,79 L 37,34.49 48.12,79 a 4.0067942,4.0067942 0 0 0 7.76,-2 l -1,-4 -0.25,-1 h 17.75 l 0.25,1 1.49,6 a 4.0067942,4.0067942 0 0 0 7.76,-2 l -14,-56 a 4.0067942,4.0067942 0 0 0 -7.76,2 l 1,4 0.25,1 H 43.62 L 43.37,27 42.12,22 A 5.28,5.28 0 0 0 31.87,22 L 18.12,77 A 4,4 0 0 0 21,81.88 Z M 67.88,54 70.38,64 H 52.62 l -2.5,-10 z m -4.5,-18 2.5,10 H 48.12 l -2.5,-10 z"
       id="path1"
       transform="matrix(0.26458333,0,0,0.26458333,94.106521,130.10088)"
       style="fill:#ff7803;fill-opacity:1" /></g></svg>
