<?xml version="1.0" encoding="UTF-8" standalone="no"?>
<svg
   width="231"
   height="41"
   fill="none"
   viewBox="0 0 231 41"
   version="1.1"
   id="svg8"
   xmlns="http://www.w3.org/2000/svg"
   xmlns:svg="http://www.w3.org/2000/svg">
  <defs
     id="defs8" />
  <path
     fill="#ffffff"
     fill-rule="evenodd"
     d="m 18.6,0.826 8.45,4.88 8.45,4.878 v 19.514 l -8.45,4.878 -8.45,4.88 -8.45,-4.88 L 1.7,30.098 V 10.584 l 8.45,-4.878 z"
     clip-rule="evenodd"
     id="path1" />
  <path
     fill="#d16323"
     fill-rule="evenodd"
     d="m 21.898,1.154 5.834,3.37 c 1.774,1.022 4.314,2.414 5.8,3.2 2.42,1.276 3.344,2.788 3.332,5.876 v 6.738 c 0,2.048 0.066,4.942 0.126,6.618 0.1,2.742 -0.742,4.294 -3.424,5.83 l -5.834,3.374 c -1.774,1.024 -4.248,2.528 -5.67,3.418 -2.324,1.456 -4.09,1.504 -6.76,-0.05 L 9.466,36.16 C 7.692,35.136 5.152,33.744 3.666,32.96 1.246,31.674 0.324,30.17 0.334,27.078 V 20.342 C 0.334,18.292 0.268,15.4 0.2,13.722 0.108,10.98 0.95,9.428 3.632,7.892 L 9.466,4.524 C 11.24,3.498 13.714,2 15.136,1.104 c 2.326,-1.456 4.09,-1.504 6.762,0.05 z M 18.6,3.688 11.388,7.852 v 8.326 L 15,14.096 l 3.6,-2.082 3.6,2.082 3.6,2.082 L 33,12.014 25.8,7.852 Z M 4.178,18.676 9.946,15.346 V 8.684 l -5.768,3.33 z m 7.21,-2.498 -7.2,4.164 v 8.326 l 7.21,4.162 7.202,4.17 7.21,-4.164 7.2,-4.162 v -8.332 l -7.2,4.162 -3.6,2.082 -3.61,2.082 -3.6,-2.082 -3.6,-2.082 v -8.326 z"
     clip-rule="evenodd"
     id="path2" />
  <path
     fill="#f58220"
     fill-rule="evenodd"
     d="m 21.898,1.154 5.834,3.368 c 1.774,1.024 4.314,2.416 5.8,3.2 2.42,1.278 3.344,2.79 3.332,5.878 v 6.738 c 0,2.048 0.066,4.942 0.126,6.618 0.054,1.476 -0.166,2.6 -0.8,3.576 l -3.2,-1.858 h 0.018 v -8.332 l -7.2,4.154 -7.16,-4.172 -0.034,-8.29 3.586,2.062 3.6,2.082 L 33,12.014 25.8,7.852 18.6,3.688 18.584,0 c 1.016,0.048 2.06,0.426 3.314,1.154 z"
     clip-rule="evenodd"
     id="path3" />
  <path
     fill="#b54625"
     fill-rule="evenodd"
     d="m 36.254,30.44 c -0.538,0.874 -1.4,1.614 -2.688,2.35 l -5.834,3.37 c -1.774,1.024 -4.248,2.528 -5.67,3.418 -2.324,1.456 -4.09,1.504 -6.76,-0.05 L 9.466,36.16 C 7.692,35.136 5.152,33.744 3.666,32.96 2.342,32.258 1.466,31.49 0.944,30.436 L 4.178,28.6 v 0.078 l 7.21,4.162 7.212,4.16 7.21,-4.164 7.2,-4.162 V 28.6 l 3.234,1.85 z M 18.6,20.342 11.388,24.466 v 0.038 l 3.6,2.082 3.6,2.082 3.6,-2.082 3.6,-2.082 0.034,-0.02 z"
     clip-rule="evenodd"
     id="path4" />
  <path
     fill="#bcbec0"
     fill-rule="evenodd"
     d="m 4.178,18.676 5.768,-3.33 V 8.684 l -5.768,3.33 z"
     clip-rule="evenodd"
     id="path5" />
  <path
     fill="#939598"
     fill-rule="evenodd"
     d="m 4.178,18.676 5.768,-3.33 V 8.684 Z"
     clip-rule="evenodd"
     id="path6" />
  <path
     fill="#231F20"
     d="m 46.468,11.468 h 2.206 v 17.584 h -2.206 z"
     id="path7"
     style="fill:#ffffff" />
  <path
     fill="#231F20"
     fill-rule="evenodd"
     d="M 55.28,29.052 V 11.566 h 1.142 l 11.35,13.068 V 11.566 h 2.174 v 17.486 h -1.11 L 57.454,15.984 v 13.068 z m 21.234,0 V 11.566 H 90.27 v 2.01 H 78.688 v 5.126 h 7.006 v 2.012 h -7.006 v 8.338 z M 96,19.352 h 7.722 c 1.098,0 1.932,-0.244 2.494,-0.73 0.562,-0.486 0.848,-1.2 0.848,-2.136 0,-0.936 -0.28,-1.634 -0.848,-2.142 -0.568,-0.508 -1.358,-0.768 -2.386,-0.768 H 96 Z m -2.172,9.7 V 11.566 h 10.036 c 1.708,0 3.047,0.43 4.016,1.292 0.969,0.861 1.455,2.05 1.456,3.568 0.061,2.453 -1.711,4.568 -4.136,4.938 l 4.368,7.688 h -2.4 L 102.8,21.4 H 96 v 7.656 z m 22.68,-6.748 h 7.692 l -3.858,-7.744 z m -5.64,6.748 8.57,-17.486 h 1.8 l 8.668,17.486 h -2.356 l -2.374,-4.704 h -9.664 l -2.312,4.704 z m 37,-5.58 1.752,1.298 c -0.744,1.46 -1.888,2.677 -3.298,3.51 -1.444,0.83 -3.086,1.255 -4.752,1.226 -2.619,0 -4.782,-0.863 -6.49,-2.59 -1.708,-1.727 -2.561,-3.917 -2.558,-6.57 0,-2.667 0.855,-4.86 2.564,-6.58 1.709,-1.72 3.869,-2.583 6.478,-2.59 1.54,-0.02 3.06,0.345 4.424,1.06 1.328,0.708 2.446,1.752 3.244,3.028 l -1.822,1.298 c -0.535,-1.032 -1.361,-1.886 -2.374,-2.456 -1.057,-0.595 -2.253,-0.9 -3.466,-0.886 -1.964,0 -3.59,0.674 -4.878,2.022 -1.288,1.348 -1.931,3.05 -1.93,5.104 0,2.06 0.643,3.762 1.93,5.106 1.287,1.344 2.913,2.01 4.878,2 1.291,0.022 2.56,-0.33 3.654,-1.016 1.125,-0.74 2.037,-1.762 2.644,-2.964 z m 6.996,5.58 V 11.566 h 2.174 v 15.476 h 11.42 v 2.01 z m 24.662,-1.59 c 1.963,0 3.59,-0.667 4.882,-2 1.292,-1.333 1.935,-3.035 1.93,-5.106 0,-2.064 -0.642,-3.774 -1.924,-5.114 -1.282,-1.34 -2.914,-2.022 -4.888,-2.022 -1.974,0 -3.6,0.676 -4.884,2.022 -1.284,1.346 -1.93,3.05 -1.93,5.104 0,2.054 0.644,3.764 1.93,5.106 1.286,1.342 2.92,2 4.884,2 z m 0,2.044 c -2.623,0 -4.785,-0.863 -6.488,-2.59 -1.703,-1.727 -2.555,-3.917 -2.558,-6.57 0,-2.667 0.856,-4.86 2.568,-6.58 1.712,-1.72 3.869,-2.583 6.472,-2.59 2.619,0 4.789,0.867 6.51,2.6 1.721,1.733 2.581,3.923 2.58,6.57 0,2.656 -0.858,4.846 -2.574,6.57 -1.716,1.724 -3.888,2.587 -6.516,2.59 z m 15.976,-17.94 v 11.322 c 0,1.812 0.341,3.029 1.022,3.65 0.682,0.616 2.018,0.924 4.018,0.924 2,0 3.33,-0.308 4,-0.924 0.67,-0.616 1.012,-1.838 1.012,-3.65 V 11.566 h 2.174 v 11.906 c 0,2.152 -0.558,3.697 -1.676,4.634 -1.117,0.937 -2.959,1.404 -5.526,1.4 -2.564,0 -4.406,-0.467 -5.528,-1.4 -1.121,-0.933 -1.68,-2.478 -1.676,-4.634 V 11.566 Z m 25.922,2.01 h -5.326 V 27.04 h 5.326 c 2.152,0 3.85,-0.6 5.082,-1.8 1.232,-1.2 1.856,-2.844 1.856,-4.904 0,-2.028 -0.63,-3.66 -1.888,-4.894 -1.254,-1.238 -2.942,-1.856 -5.05,-1.856 z m 0,-2 c 2.752,0 4.968,0.813 6.65,2.438 1.681,1.625 2.523,3.74 2.526,6.344 0,2.628 -0.828,4.735 -2.482,6.32 -1.655,1.585 -3.886,2.377 -6.694,2.374 h -7.5 V 11.566 Z"
     clip-rule="evenodd"
     id="path8"
     style="fill:#ffffff" />
</svg>
